<svg width="70" height="70" viewBox="0 0 70 70" fill="none" xmlns="http://www.w3.org/2000/svg">
<g clip-path="url(#clip0_13_26)">
<path d="M67.0833 32.0824H2.91664C1.30581 32.0824 -2.28882e-05 33.3883 -2.28882e-05 34.9991C-2.28882e-05 36.61 1.30581 37.9158 2.91664 37.9158H67.0833C68.6941 37.9158 70 36.61 70 34.9991C70 33.3883 68.6941 32.0824 67.0833 32.0824Z" fill="#FBF3E4"/>
<path d="M67.0833 11.6676H2.91664C1.30581 11.6676 -2.28882e-05 12.9734 -2.28882e-05 14.5842C-2.28882e-05 16.195 1.30581 17.5009 2.91664 17.5009H67.0833C68.6941 17.5009 70 16.195 70 14.5842C70 12.9734 68.6941 11.6676 67.0833 11.6676Z" fill="#FBF3E4"/>
<path d="M67.0833 52.5H2.91664C1.30581 52.5 -2.28882e-05 53.8058 -2.28882e-05 55.4167C-2.28882e-05 57.0275 1.30581 58.3334 2.91664 58.3334H67.0833C68.6941 58.3334 70 57.0275 70 55.4167C70 53.8058 68.6941 52.5 67.0833 52.5Z" fill="#FBF3E4"/>
</g>
<defs>
<clipPath id="clip0_13_26">
<rect width="70" height="70" fill="white"/>
</clipPath>
</defs>
</svg>
